<?xml version="1.0" standalone="no"?>
<!DOCTYPE svg PUBLIC "-//W3C//DTD SVG 20010904//EN"
 "http://www.w3.org/TR/2001/REC-SVG-20010904/DTD/svg10.dtd">
<svg version="1.0" xmlns="http://www.w3.org/2000/svg"
 width="375.000000pt" height="375.000000pt" viewBox="0 0 375.000000 375.000000"
 preserveAspectRatio="xMidYMid meet">
<metadata>
Created by potrace 1.11, written by Peter Selinger 2001-2013
</metadata>
<g transform="translate(0.000000,375.000000) scale(0.100000,-0.100000)"
fill="#000000" stroke="none">
<path d="M1708 3745 c-1 -2 -28 -6 -58 -9 -67 -7 -101 -13 -161 -27 -26 -6
-53 -12 -60 -13 -22 -4 -102 -26 -129 -36 -29 -9 -52 -17 -62 -19 -9 -2 -107
-45 -168 -73 -91 -42 -261 -144 -268 -160 -2 -5 -8 -8 -14 -8 -5 0 -31 -17
-56 -37 -244 -197 -425 -422 -549 -683 -35 -74 -86 -204 -99 -250 -2 -8 -11
-40 -19 -70 -21 -77 -43 -183 -52 -260 -13 -107 -7 -415 10 -515 21 -124 24
-139 53 -235 14 -46 27 -92 29 -101 2 -9 8 -25 14 -35 6 -11 22 -47 36 -82 32
-78 115 -236 126 -240 5 -2 9 -10 9 -18 0 -8 5 -14 10 -14 6 0 10 -6 10 -12 0
-7 14 -29 30 -48 16 -19 30 -38 30 -41 0 -3 9 -17 21 -30 11 -13 29 -34 40
-47 10 -12 19 -24 19 -27 0 -5 160 -164 206 -205 16 -14 56 -46 89 -70 33 -25
61 -48 63 -52 2 -5 8 -8 12 -8 5 0 29 -13 53 -30 25 -16 49 -30 55 -30 6 0 12
-4 14 -8 11 -29 377 -178 478 -196 14 -2 43 -9 65 -14 22 -6 63 -14 90 -18 28
-3 59 -8 70 -11 38 -9 380 -11 435 -2 30 5 71 11 90 14 32 4 48 7 113 19 12 3
37 9 55 15 18 5 33 9 35 9 2 -1 34 8 95 27 7 3 14 5 17 5 14 2 200 83 255 112
67 34 88 47 179 107 29 20 64 43 78 53 84 55 281 249 358 353 17 22 38 49 48
59 9 11 17 26 17 33 0 7 5 13 10 13 6 0 10 6 10 14 0 8 4 16 8 18 12 4 72 109
119 208 44 92 120 296 115 307 -1 2 5 24 13 50 8 27 17 68 20 93 4 24 8 47 10
50 18 28 26 399 13 520 -29 251 -121 525 -250 739 -21 34 -38 67 -38 71 0 5
-3 10 -8 12 -4 2 -28 32 -54 68 -101 141 -256 298 -399 403 -55 41 -79 57 -89
57 -5 0 -10 4 -10 8 0 5 -19 19 -42 32 -61 33 -248 128 -254 128 -2 0 -35 12
-72 26 -111 41 -271 83 -352 92 -30 3 -59 8 -64 12 -10 6 -392 13 -398 7z"/>
</g>
</svg>
